/* XPM */
static const char * appicon_xpm[] = {
"24 24 100 2",
"  	c None",
". 	c #111111",
"+ 	c #161616",
"@ 	c #141414",
"# 	c #121212",
"$ 	c #242424",
"% 	c #434343",
"& 	c #565656",
"* 	c #555555",
"= 	c #454545",
"- 	c #1A1A1A",
"; 	c #4A4A4A",
"> 	c #575757",
", 	c #5F655E",
"' 	c #4E4E4E",
") 	c #181818",
"! 	c #1B1B1B",
"~ 	c #525252",
"{ 	c #589152",
"] 	c #65E459",
"^ 	c #539D4C",
"/ 	c #535353",
"( 	c #131313",
"_ 	c #4C4C4C",
": 	c #598254",
"< 	c #4ACD3C",
"[ 	c #588C51",
"} 	c #101010",
"| 	c #272727",
"1 	c #595959",
"2 	c #2A2A2A",
"3 	c #2C2B2B",
"4 	c #474747",
"5 	c #262626",
"6 	c #444444",
"7 	c #2B2A2A",
"8 	c #171616",
"9 	c #1E1A1A",
"0 	c #1D1A1A",
"a 	c #181616",
"b 	c #2E2E2E",
"c 	c #0C0C0C",
"d 	c #3E3E3E",
"e 	c #1C1A1A",
"f 	c #252121",
"g 	c #A4A3A3",
"h 	c #605D5D",
"i 	c #1B1818",
"j 	c #424242",
"k 	c #151515",
"l 	c #212121",
"m 	c #231F1F",
"n 	c #2F2B2B",
"o 	c #D3D2D2",
"p 	c #969494",
"q 	c #231E1E",
"r 	c #252424",
"s 	c #221E1E",
"t 	c #242020",
"u 	c #272323",
"v 	c #211D1D",
"w 	c #272525",
"x 	c #494949",
"y 	c #464646",
"z 	c #191717",
"A 	c #515151",
"B 	c #2C2C2C",
"C 	c #373737",
"D 	c #181717",
"E 	c #191616",
"F 	c #171515",
"G 	c #393939",
"H 	c #333333",
"I 	c #171717",
"J 	c #3F3F3F",
"K 	c #545454",
"L 	c #222222",
"M 	c #3C3C3C",
"N 	c #585858",
"O 	c #656565",
"P 	c #303030",
"Q 	c #2B2B2B",
"R 	c #2D2D2D",
"S 	c #292929",
"T 	c #282828",
"U 	c #6F6F6F",
"V 	c #6D6D6D",
"W 	c #6E6E6E",
"X 	c #707070",
"Y 	c #1D1D1D",
"Z 	c #6B6B6B",
"` 	c #0F0F0F",
" .	c #353535",
"..	c #000000",
"+.	c #1E1E1E",
"@.	c #252525",
"#.	c #232323",
"$.	c #202020",
"%.	c #1C1C1C",
"&.	c #040404",
"                                                ",
"                    . + @ .                     ",
"              # $ % & * * & = $ .               ",
"            - ; > , > * * & & & ' )             ",
"          ! ~ & { ] ^ * & & & & & / -           ",
"        ( _ & & : < [ * & & & & & & ' }         ",
"        | & & & & 1 = 2 3 4 & & & & & 5         ",
"        6 & & & & 7 8 9 0 a b & * & & _ c       ",
"      # * & & & d e f g h f i j * & & & }       ",
"      k & & & & l m n o p f q r * & & & -       ",
"      @ * & & & $ s t u t f v w * & & & .       ",
"        x & & & y e t t t f z x * & & A c       ",
"        B & & & > C D E a F G * * & & H         ",
"        I ~ & & > > A d J A * * * & & #         ",
"          $ & & > & & & & & * * * & 5           ",
"            | K > & & & & & * * & |             ",
"              L M & N 1 N 1 > J )               ",
"            + O ~ P Q Q R S S % =               ",
"            T U U U U U V U U W X k             ",
"            ' U U U U U U U U W X H             ",
"          Y W U U U U U U U U W X Z `           ",
"           .U U U U U U U U U W X X $           ",
"        ..+.| 5 @.#.$ L l $.+.Y %.! ( &.        ",
"                                                "};
