/* XPM */
static const char * configure_xpm[] = {
"16 16 102 2",
"  	c None",
". 	c #BEBECB",
"+ 	c #DFDFE5",
"@ 	c #E1E1E7",
"# 	c #D1D1DA",
"$ 	c #C5C5D0",
"% 	c #E0E0E6",
"& 	c #FCFCFD",
"* 	c #F8F8FA",
"= 	c #E6E6EB",
"- 	c #D1D1DB",
"; 	c #FDFDFD",
"> 	c #FFFFFF",
", 	c #DBDBE2",
"' 	c #A2A2B6",
") 	c #F5F5F8",
"! 	c #FEFEFE",
"~ 	c #EAEAEF",
"{ 	c #B8B8C7",
"] 	c #CDCDD7",
"^ 	c #AAAABB",
"/ 	c #D2D2DB",
"( 	c #F5F5F7",
"_ 	c #E9E9EE",
": 	c #ABABBC",
"< 	c #BBBBCA",
"[ 	c #E2E2E8",
"} 	c #A4A4B7",
"| 	c #8787A0",
"1 	c #EBEBEF",
"2 	c #EFEFF2",
"3 	c #EEEEF2",
"4 	c #DEDEE5",
"5 	c #AFAFC0",
"6 	c #A4A4B6",
"7 	c #D8D8E0",
"8 	c #DADAE1",
"9 	c #E4E4EA",
"0 	c #E3E3E9",
"a 	c #CCCCD6",
"b 	c #A8A7B8",
"c 	c #B1B1C1",
"d 	c #DDDDE4",
"e 	c #DCDCE3",
"f 	c #D0D0DA",
"g 	c #C1C1CC",
"h 	c #BBACA1",
"i 	c #DAA232",
"j 	c #9696AC",
"k 	c #B3B3C3",
"l 	c #BFBFCC",
"m 	c #BBBBC9",
"n 	c #C1C1CD",
"o 	c #CBCBD5",
"p 	c #CFB695",
"q 	c #DBA63D",
"r 	c #EEA61A",
"s 	c #E6AB26",
"t 	c #83839D",
"u 	c #7E7E99",
"v 	c #9A99AD",
"w 	c #B8AAA2",
"x 	c #D7A03C",
"y 	c #EDA11B",
"z 	c #FB9B11",
"A 	c #F6A417",
"B 	c #E0A829",
"C 	c #BF872E",
"D 	c #F4B01E",
"E 	c #FDB31D",
"F 	c #FFB51E",
"G 	c #FFB41E",
"H 	c #F8B31F",
"I 	c #E3A826",
"J 	c #E0A426",
"K 	c #FCC227",
"L 	c #FFC628",
"M 	c #FFC025",
"N 	c #FEB921",
"O 	c #FCB922",
"P 	c #DB9C25",
"Q 	c #D49A26",
"R 	c #FCCC2E",
"S 	c #FFB921",
"T 	c #FFA213",
"U 	c #FF970C",
"V 	c #F9A417",
"W 	c #C78624",
"X 	c #D99A24",
"Y 	c #FCA919",
"Z 	c #FFA717",
"` 	c #FF940B",
" .	c #FE9C0F",
"..	c #CC861F",
"+.	c #CB7D1A",
"@.	c #F8A518",
"#.	c #FEA516",
"$.	c #E58C14",
"%.	c #B47120",
"&.	c #B46C1C",
"*.	c #C07219",
"=.	c #AA671E",
"      . + @ # $                 ",
"        % & * =                 ",
"          - ; > ,               ",
"          ' ) ! ~               ",
"{ ]     ^ / ( ( _ :             ",
"< [ } | ] 1 2 3 4 5             ",
"6 7 8 / 9 9 9 0 a b             ",
"  c d d d d e f g h i           ",
"    j k l m n o p q r s         ",
"        t u v w x y z A B       ",
"              C D E F G H I     ",
"                J K L M N O P   ",
"                  Q R S T U V W ",
"                    X Y Z `  ...",
"                      +.@.#.$.%.",
"                        &.*.=.  "};
