/* XPM */
static const char * device_xpm[] = {
"32 32 124 2",
"  	c None",
". 	c #0C0C0C",
"+ 	c #151515",
"@ 	c #222222",
"# 	c #2F2F2F",
"$ 	c #2D2D2D",
"% 	c #262626",
"& 	c #161616",
"* 	c #0B0B0B",
"= 	c #080808",
"- 	c #0D0D0D",
"; 	c #343434",
"> 	c #525252",
", 	c #575757",
"' 	c #565656",
") 	c #555555",
"! 	c #363636",
"~ 	c #0F0F0F",
"{ 	c #0A0A0A",
"] 	c #272727",
"^ 	c #535353",
"/ 	c #2B2B2B",
"( 	c #353535",
"_ 	c #5D7E5B",
": 	c #52C146",
"< 	c #5BA954",
"[ 	c #595959",
"} 	c #3D3D3D",
"| 	c #55B84A",
"1 	c #8BE981",
"2 	c #37DF25",
"3 	c #60685F",
"4 	c #3A3A3A",
"5 	c #191919",
"6 	c #5F845B",
"7 	c #49C73D",
"8 	c #58AD4F",
"9 	c #5B5B5B",
"0 	c #1F1F1F",
"a 	c #0E0E0E",
"b 	c #484848",
"c 	c #5A5A5A",
"d 	c #494949",
"e 	c #373737",
"f 	c #4A4A4A",
"g 	c #505050",
"h 	c #090909",
"i 	c #141414",
"j 	c #4B4B4B",
"k 	c #100F0F",
"l 	c #151313",
"m 	c #141212",
"n 	c #0E0D0D",
"o 	c #4E4E4E",
"p 	c #181818",
"q 	c #111010",
"r 	c #1C1919",
"s 	c #242020",
"t 	c #252121",
"u 	c #191616",
"v 	c #131212",
"w 	c #545454",
"x 	c #3C3C3C",
"y 	c #2B2929",
"z 	c #1A1818",
"A 	c #4B4848",
"B 	c #D7D6D6",
"C 	c #8E8B8B",
"D 	c #181616",
"E 	c #302E2E",
"F 	c #444444",
"G 	c #434343",
"H 	c #888686",
"I 	c #EBEAEA",
"J 	c #CBC9C9",
"K 	c #221E1E",
"L 	c #161515",
"M 	c #121212",
"N 	c #121111",
"O 	c #292525",
"P 	c #676464",
"Q 	c #3D3939",
"R 	c #241F1F",
"S 	c #383838",
"T 	c #1C1B1B",
"U 	c #201C1C",
"V 	c #1D1919",
"W 	c #212121",
"X 	c #424242",
"Y 	c #454545",
"Z 	c #231F1F",
"` 	c #231E1E",
" .	c #0F0D0D",
"..	c #101010",
"+.	c #333333",
"@.	c #201D1D",
"#.	c #0D0C0C",
"$.	c #393939",
"%.	c #111111",
"&.	c #3B3B3B",
"*.	c #242424",
"=.	c #252525",
"-.	c #1A1A1A",
";.	c #202020",
">.	c #1B1B1B",
",.	c #070707",
"'.	c #2C2C2C",
").	c #3F3F3F",
"!.	c #6F6F6F",
"~.	c #5F5F5F",
"{.	c #1C1C1C",
"].	c #6C6C6C",
"^.	c #6A6A6A",
"/.	c #2A2A2A",
"(.	c #5C5C5C",
"_.	c #414141",
":.	c #2E2E2E",
"<.	c #636363",
"[.	c #676767",
"}.	c #666666",
"|.	c #656565",
"1.	c #646464",
"2.	c #626262",
"3.	c #030303",
"                                                                ",
"                                                                ",
"                        . + @ # $ % & * =                       ",
"                    - ; > , ' ' ) ' ) ) ! ~                     ",
"                { ] ^ , , , ' ' ) ' ) ' ' ) / =                 ",
"              . ( ' ' _ : < [ ' ) ' ) ' ' ) ' } =               ",
"              # ' ' ' | 1 2 3 ' ) ' ) ' ' ) ' ' 4 =             ",
"            5 ' ' ' ' 6 7 8 9 ' ) ' ' ' ' ) ' ' , 0             ",
"          a b ' ' ' ' , c , d ! e f ' ' ' ) ' ' ' g h           ",
"          i ' ' ' ' ' , j & k l m n 5 o ' ) ' ' ' ' p           ",
"          $ ' ' ' ' ' > q r s s s t u v w ) ' ' ' , ;           ",
"          x ' ' ' ' ' y z s A B C t t D E ) ' ' ' , F =         ",
"        * G ' ' ' ' ' v s s H I J t t K L ) ' ' ' , ^ M         ",
"        * G ' ' ' ' ' N s s O P Q t t R & ' ' ' ' , j h         ",
"          S ' ' ' ' ' T U s s s s t t V W ' ' ' ' , X =         ",
"          % ' ' ' ' ' Y k Z s s s t `  .j ' ' ' ' , $           ",
"          ..) ' ' ' ' ' +.n u @.U D #.$.' ' ' ' ' , %.          ",
"            &.' ' ' ' ' , b *.i i =.f ) ' ' ' , ' F =           ",
"            %.^ ' ' ' ' , ' ) ' ' ) ' ) ' ' ' , ^ M             ",
"              -.w ' ' ' , ' ) ' ' ) ' ) ' ' ' , ;.              ",
"                >.> ' ' , ' ) ' ' ) ' ' ' ' w ;.,.              ",
"                  ..G ' , , ' ' ' ) ' ' ' F M                   ",
"                  & '.W ).' c 9 9 c [ X *.5 =                   ",
"                  Y !.~.x @ {.{.{.-.>.# ^ !.5                   ",
"                M ].!.!.!.!.!.!.^.!.!.!.!.!.> h                 ",
"                /.!.!.!.!.!.!.!.!.!.!.!.!.!.!.%.                ",
"              ~ (.!.!.!.!.!.!.!.!.!.!.!.!.!.!._.                ",
"              5 !.!.!.!.!.!.!.!.!.!.!.!.!.!.!.!..               ",
"              X !.!.!.!.!.!.!.!.!.!.!.!.!.!.!.!.:.              ",
"            ~ <.[.}.}.[.}.}.|.|.|.|.1.1.<.1.<.2.c =             ",
"            = ....~ ~ ~ - - - - . . . . . { { { h 3.            ",
"                                                                "};
