/* XPM */
static const char * film_xpm[] = {
"32 32 157 2",
"  	c None",
". 	c #1D1D1D",
"+ 	c #1C1C1C",
"@ 	c #1B1B1B",
"# 	c #1A1A1A",
"$ 	c #191919",
"% 	c #181818",
"& 	c #181718",
"* 	c #171717",
"= 	c #161616",
"- 	c #151515",
"; 	c #141414",
"> 	c #131313",
", 	c #121212",
"' 	c #111111",
") 	c #101010",
"! 	c #0F0F0F",
"~ 	c #0E0E0E",
"{ 	c #0D0D0D",
"] 	c #0C0C0C",
"^ 	c #0B0B0B",
"/ 	c #0A0A0A",
"( 	c #090909",
"_ 	c #080808",
": 	c #070707",
"< 	c #060606",
"[ 	c #050605",
"} 	c #050405",
"| 	c #040404",
"1 	c #030303",
"2 	c #020202",
"3 	c #010101",
"4 	c #030608",
"5 	c #171818",
"6 	c #161717",
"7 	c #050606",
"8 	c #040504",
"9 	c #020607",
"0 	c #F8F8F8",
"a 	c #F5F5F5",
"b 	c #EEEEEE",
"c 	c #F2F2F2",
"d 	c #EBEBEB",
"e 	c #E8E8E8",
"f 	c #E7E7E7",
"g 	c #E5E6E5",
"h 	c #E5E5E5",
"i 	c #E2E2E2",
"j 	c #E1E1E1",
"k 	c #FCFBFB",
"l 	c #FBF9FA",
"m 	c #F9F8F9",
"n 	c #F7F7F7",
"o 	c #F5F4F4",
"p 	c #F4F3F3",
"q 	c #F1F0F0",
"r 	c #F0EEEE",
"s 	c #EDEBEB",
"t 	c #ECEAEA",
"u 	c #E9E8E8",
"v 	c #E8E7E8",
"w 	c #E5E4E4",
"x 	c #E5E3E3",
"y 	c #FBFAFA",
"z 	c #F8F9F8",
"A 	c #F8F6F6",
"B 	c #F5F3F3",
"C 	c #F4F2F2",
"D 	c #F1EFEF",
"E 	c #E9E7E8",
"F 	c #E8E7E7",
"G 	c #E6E5E5",
"H 	c #CDCDCD",
"I 	c #171616",
"J 	c #060605",
"K 	c #040405",
"L 	c #181817",
"M 	c #171617",
"N 	c #060506",
"O 	c #050404",
"P 	c #F6B62C",
"Q 	c #F5B52B",
"R 	c #F4B42A",
"S 	c #F3B329",
"T 	c #F2B228",
"U 	c #F1B127",
"V 	c #F1B026",
"W 	c #F0AF26",
"X 	c #EFAE25",
"Y 	c #ECAB22",
"Z 	c #EBAA21",
"` 	c #EAA920",
" .	c #E9A91F",
"..	c #E8A81E",
"+.	c #E7A71D",
"@.	c #E6A61C",
"#.	c #E5A51B",
"$.	c #E4A41A",
"%.	c #E3A319",
"&.	c #E0A016",
"*.	c #E09F15",
"=.	c #DF9E14",
"-.	c #DE9D14",
";.	c #DD9C13",
">.	c #DC9B12",
",.	c #DB9A11",
"'.	c #DA9910",
").	c #D9990F",
"!.	c #F2B127",
"~.	c #F0B026",
"{.	c #EAAA20",
"].	c #DF9F15",
"^.	c #DE9E15",
"/.	c #DE9D13",
"(.	c #D9980F",
"_.	c #DDA529",
":.	c #DDA429",
"<.	c #DBA328",
"[.	c #DBA227",
"}.	c #DAA126",
"|.	c #F1B027",
"1.	c #D29A1E",
"2.	c #D1991D",
"3.	c #D0981C",
"4.	c #CF971B",
"5.	c #CE961A",
"6.	c #C78E13",
"7.	c #C68D12",
"8.	c #C58C11",
"9.	c #C48B10",
"0.	c #C38B0F",
"a.	c #DCA328",
"b.	c #F0AF25",
"c.	c #EBAB21",
"d.	c #C38A0F",
"e.	c #F0B027",
"f.	c #DF9E15",
"g.	c #171817",
"h.	c #020608",
"i.	c #161716",
"j.	c #FCFCFC",
"k.	c #FBFBFB",
"l.	c #F8F8F7",
"m.	c #F4F4F4",
"n.	c #F1F1F1",
"o.	c #F0F0F0",
"p.	c #EDEDED",
"q.	c #ECECEC",
"r.	c #E9E9E9",
"s.	c #050505",
"t.	c #E6E6E5",
"u.	c #F8F8F9",
"v.	c #E6E6E6",
"w.	c #171718",
"x.	c #040505",
"y.	c #161617",
"z.	c #050506",
"                                                                ",
"                                                                ",
"                                                                ",
". + @ # $ % & * = - ; > , ' ) ! ~ { ] ^ / ( _ : < [ } | 1 2 3 4 ",
". + @ # $ % 5 6 = - ; > , ' ) ! ~ { ] ^ / ( _ : < 7 8 | 1 2 3 9 ",
". + 0 0 $ % a a = - b c , ' b d ~ { e f / ( e e < < g h 1 2 i j ",
". + k l $ % m n = - o p , ' q r ~ { s t / ( u v < [ w x 1 2 i j ",
". + k y $ % z A = - B C , ' D r ~ { s t / ( E F < 7 G w 1 2 i H ",
". + @ # $ % % I = - ; > , ' ) ! ~ { ] ^ / ( _ : < J K | 1 2 3 4 ",
". + @ # $ % L M = - ; > , ' ) ! ~ { ] ^ / ( _ : < N O | 1 2 3 4 ",
"P Q R S T U V W X - ; Y Z `  ...+.@.#.$.%.( _ &.*.=.-.;.>.,.'.).",
"P Q R S T !.~.W X - ; Y Z {. ...+.@.#.$.%.( _ &.].^./.;.>.,.'.(.",
"P _.:.<.[.}.|.W X - ; Y Z 1.2.3.4.5.#.$.%.( _ &.*.6.7.8.9.0.'.).",
"P _.:.a.[.}.|.b.X - ; Y c.1.2.3.4.5.#.$.%.( _ &.*.6.7.8.9.d.'.(.",
"P _.:.a.[.}.|.W X - ; Y c.1.2.3.4.5.#.$.%.( _ &.].6.7.8.9.d.'.(.",
"P _.:.a.[.}.V W X - ; Y Z 1.2.3.4.5.#.$.%.( _ &.*.6.7.8.9.d.'.(.",
"P _.:.a.[.}.e.b.X - ; Y Z 1.2.3.4.5.#.$.%.( _ &.*.6.7.8.9.d.'.).",
"P _.:.a.[.}.|.b.X - ; Y Z 1.2.3.4.5.#.$.%.( _ &.].6.7.8.9.d.'.).",
"P _.:.<.[.}.e.b.X - ; Y Z 1.2.3.4.5.#.$.%.( _ &.].6.7.8.9.d.'.).",
"P _.:.a.[.}.e.W X - ; Y c.1.2.3.4.5.#.$.%.( _ &.*.6.7.8.9.d.'.(.",
"P Q R S T !.V W X - ; Y Z `  ...+.@.#.$.%.( _ &.*.^./.;.>.,.'.(.",
"P Q R S T U |.W X - ; Y Z `  ...+.@.#.$.%.( _ &.*.f.-.;.>.,.'.(.",
". + @ # $ % g.6 = - ; > , ' ) ! ~ { ] ^ / ( _ : < 7 | | 1 2 3 h.",
". + @ # $ % L i.= - ; > , ' ) ! ~ { ] ^ / ( _ : < 7 | | 1 2 3 4 ",
". + j.k.$ % m l.= - a m., ' n.o.~ { p.q./ ( r.e < J h h 1 2 i j ",
". + j.k.$ % 0 0 = - a m., ' n.o.~ { p.q./ ( r.e < s.t.h 1 2 i j ",
". + j.k.$ % u.0 = - a m., ' n.o.~ { p.q./ ( r.e < < v.h 1 2 i j ",
". + @ # $ % w.* = - ; > , ' ) ! ~ { ] ^ / ( _ : < J x.| 1 2 3 9 ",
". + @ # $ % & y.= - ; > , ' ) ! ~ { ] ^ / ( _ : < z.s.| 1 2 3 h.",
"                                                                ",
"                                                                ",
"                                                                "};
