/* XPM */
static const char * record_image_xpm[] = {
"48 48 555 2",
"  	c None",
". 	c #F25050",
"+ 	c #F24646",
"@ 	c #F14141",
"# 	c #F03B3B",
"$ 	c #EE3D3D",
"% 	c #EB4141",
"& 	c #E84848",
"* 	c #F75454",
"= 	c #F53E3E",
"- 	c #F53737",
"; 	c #F43737",
"> 	c #F33535",
", 	c #F23434",
"' 	c #F13333",
") 	c #F13332",
"! 	c #EF3231",
"~ 	c #EF3030",
"{ 	c #EE3030",
"] 	c #ED2F2F",
"^ 	c #EB2E2F",
"/ 	c #EB2E2E",
"( 	c #E83131",
"_ 	c #E14241",
": 	c #F64444",
"< 	c #F73838",
"[ 	c #F63737",
"} 	c #F43232",
"| 	c #F43030",
"1 	c #F32F2F",
"2 	c #F22D2E",
"3 	c #F12D2D",
"4 	c #F02C2C",
"5 	c #EE2C2C",
"6 	c #ED2C2C",
"7 	c #EC2D2D",
"8 	c #EB2C2C",
"9 	c #E92B2B",
"0 	c #E82B2B",
"a 	c #E82A2A",
"b 	c #E43232",
"c 	c #F84444",
"d 	c #F73A3A",
"e 	c #F73939",
"f 	c #F63434",
"g 	c #F73131",
"h 	c #F72E2E",
"i 	c #F72D2D",
"j 	c #F62C2C",
"k 	c #F52C2C",
"l 	c #F42A2A",
"m 	c #F32A2A",
"n 	c #F32828",
"o 	c #F12828",
"p 	c #F12727",
"q 	c #F02525",
"r 	c #EF2525",
"s 	c #ED2525",
"t 	c #EC2625",
"u 	c #EA2828",
"v 	c #E72929",
"w 	c #E52828",
"x 	c #E52727",
"y 	c #E02E2E",
"z 	c #F95151",
"A 	c #F93A3A",
"B 	c #F7393A",
"C 	c #F83434",
"D 	c #F83131",
"E 	c #F92F2F",
"F 	c #F82D2D",
"G 	c #F32929",
"H 	c #F02625",
"I 	c #ED2324",
"J 	c #ED2121",
"K 	c #EB2121",
"L 	c #EA2222",
"M 	c #E72424",
"N 	c #E42727",
"O 	c #E42525",
"P 	c #E22424",
"Q 	c #D73131",
"R 	c #F94141",
"S 	c #F93737",
"T 	c #FA3131",
"U 	c #F93030",
"V 	c #F72C2C",
"W 	c #F42C2C",
"X 	c #F42929",
"Y 	c #F12626",
"Z 	c #ED2323",
"` 	c #ED2122",
" .	c #EA2020",
"..	c #E91E1E",
"+.	c #E71F1F",
"@.	c #E42222",
"#.	c #E12424",
"$.	c #DD2525",
"%.	c #F93D3D",
"&.	c #F83939",
"*.	c #FA3333",
"=.	c #FB3030",
"-.	c #F62D2D",
";.	c #F52B2B",
">.	c #F12728",
",.	c #ED2424",
"'.	c #ED2222",
").	c #EA2021",
"!.	c #E71E1E",
"~.	c #E71D1D",
"{.	c #E61D1D",
"].	c #E41E1E",
"^.	c #E02222",
"/.	c #DF2121",
"(.	c #DD2222",
"_.	c #F93C3C",
":.	c #F83838",
"<.	c #FB3232",
"[.	c #F82E2E",
"}.	c #F42B2B",
"|.	c #F02626",
"1.	c #F02424",
"2.	c #EE2424",
"3.	c #ED2322",
"4.	c #EC2121",
"5.	c #EA2121",
"6.	c #E91F1F",
"7.	c #E81D1D",
"8.	c #E51B1B",
"9.	c #E51A1A",
"0.	c #E31C1C",
"a.	c #DF1F1F",
"b.	c #DE2020",
"c.	c #DB1F1F",
"d.	c #FA3030",
"e.	c #F72F2F",
"f.	c #F02828",
"g.	c #E92121",
"h.	c #E61B1B",
"i.	c #E41A1A",
"j.	c #E31919",
"k.	c #E11818",
"l.	c #DD1E1D",
"m.	c #DB1E1E",
"n.	c #DA1E1E",
"o.	c #F94040",
"p.	c #F83A3A",
"q.	c #F93838",
"r.	c #FC3232",
"s.	c #F82F2F",
"t.	c #F02727",
"u.	c #F02627",
"v.	c #E92020",
"w.	c #E61C1C",
"x.	c #E31A1A",
"y.	c #E11717",
"z.	c #E01717",
"A.	c #DC1C1C",
"B.	c #DA1C1C",
"C.	c #D61E1E",
"D.	c #F84A4A",
"E.	c #F83B3B",
"F.	c #FB3233",
"G.	c #F22728",
"H.	c #F02425",
"I.	c #EB2020",
"J.	c #E41B1A",
"K.	c #E41919",
"L.	c #E21818",
"M.	c #E11616",
"N.	c #E01515",
"O.	c #DD1717",
"P.	c #D91A1A",
"Q.	c #D81B1B",
"R.	c #CA2020",
"S.	c #FA3434",
"T.	c #FB3131",
"U.	c #F62B2B",
"V.	c #F42A2B",
"W.	c #F22727",
"X.	c #EF2424",
"Y.	c #EC2424",
"Z.	c #EC2020",
"`.	c #E51C1C",
" +	c #DD1515",
".+	c #DD1414",
"++	c #DB1515",
"@+	c #D71A1A",
"#+	c #D71818",
"$+	c #F84040",
"%+	c #F93535",
"&+	c #FA2F2F",
"*+	c #F72C2B",
"=+	c #F32B2B",
"-+	c #F32727",
";+	c #E81E1E",
">+	c #DF1515",
",+	c #DE1414",
"'+	c #DD1313",
")+	c #DC1111",
"!+	c #D91616",
"~+	c #D61717",
"{+	c #D01818",
"]+	c #F76262",
"^+	c #EC2323",
"/+	c #EC2122",
"(+	c #E41B1B",
"_+	c #E01616",
":+	c #DD1111",
"<+	c #DB1111",
"[+	c #DA1212",
"}+	c #D51616",
"|+	c #D41717",
"1+	c #B02222",
"2+	c #F93333",
"3+	c #EC2222",
"4+	c #E71C1C",
"5+	c #E01818",
"6+	c #E01617",
"7+	c #DF1414",
"8+	c #DD1211",
"9+	c #D91111",
"0+	c #D90F10",
"a+	c #D61212",
"b+	c #D31616",
"c+	c #CC1616",
"d+	c #F63838",
"e+	c #F62B2C",
"f+	c #F52A2A",
"g+	c #F32827",
"h+	c #EF2627",
"i+	c #EF2323",
"j+	c #EE2323",
"k+	c #E81F1F",
"l+	c #E41A19",
"m+	c #DD1212",
"n+	c #DA1010",
"o+	c #D91010",
"p+	c #D90D0D",
"q+	c #D70E0E",
"r+	c #D21313",
"s+	c #D11313",
"t+	c #F74A4A",
"u+	c #F63939",
"v+	c #F73434",
"w+	c #F92E2E",
"x+	c #EF2727",
"y+	c #EF2626",
"z+	c #EB2021",
"A+	c #E41A1B",
"B+	c #E21918",
"C+	c #D90E0E",
"D+	c #D80D0D",
"E+	c #D70D0D",
"F+	c #D30F0F",
"G+	c #C01414",
"H+	c #F93131",
"I+	c #F62E2E",
"J+	c #F62A2A",
"K+	c #F32A29",
"L+	c #EA201F",
"M+	c #E01414",
"N+	c #DC1212",
"O+	c #DC1010",
"P+	c #D90E0F",
"Q+	c #D50D0D",
"R+	c #D30C0C",
"S+	c #D01313",
"T+	c #CD1112",
"U+	c #F43636",
"V+	c #EA1F1F",
"W+	c #E31B1B",
"X+	c #E31818",
"Y+	c #E01516",
"Z+	c #DC1414",
"`+	c #DC1312",
" @	c #D50B0B",
".@	c #D40909",
"+@	c #CF1112",
"@@	c #CE1010",
"#@	c #F45555",
"$@	c #F43736",
"%@	c #F53333",
"&@	c #F22929",
"*@	c #F22626",
"=@	c #EB2221",
"-@	c #E31B1A",
";@	c #DC1313",
">@	c #D9100F",
",@	c #D50C0C",
"'@	c #D30909",
")@	c #CF0F0E",
"!@	c #CE0F0F",
"~@	c #AC1414",
"{@	c #F34445",
"]@	c #F33636",
"^@	c #F63131",
"/@	c #F22A2A",
"(@	c #F22828",
"_@	c #EF2524",
":@	c #EB2323",
"<@	c #E21717",
"[@	c #DE1313",
"}@	c #DB1010",
"|@	c #D70C0C",
"1@	c #D60C0C",
"2@	c #D20909",
"3@	c #D00B0B",
"4@	c #CD0F0F",
"5@	c #BC1112",
"6@	c #F33D3D",
"7@	c #F33635",
"8@	c #F53030",
"9@	c #E31717",
"0@	c #D81010",
"a@	c #D40A0A",
"b@	c #D10808",
"c@	c #CE0909",
"d@	c #CC0F0F",
"e@	c #C30F0E",
"f@	c #F33737",
"g@	c #F33434",
"h@	c #F42F2F",
"i@	c #F42A29",
"j@	c #F22928",
"k@	c #E61B1C",
"l@	c #E31A19",
"m@	c #E31819",
"n@	c #DF1717",
"o@	c #D8100F",
"p@	c #D80E0E",
"q@	c #D40B0A",
"r@	c #D10707",
"s@	c #D00707",
"t@	c #CB0F0F",
"u@	c #C50E0E",
"v@	c #F32C2C",
"w@	c #F52929",
"x@	c #EE2626",
"y@	c #DF1616",
"z@	c #DF1313",
"A@	c #D80F0F",
"B@	c #D30808",
"C@	c #D10708",
"D@	c #D00505",
"E@	c #CF0606",
"F@	c #CB0808",
"G@	c #B60E0E",
"H@	c #F03333",
"I@	c #EB2122",
"J@	c #E61D1C",
"K@	c #E21718",
"L@	c #DA0F0F",
"M@	c #D40B0B",
"N@	c #D10807",
"O@	c #D00606",
"P@	c #CE0808",
"Q@	c #CB0C0C",
"R@	c #C70C0C",
"S@	c #F03535",
"T@	c #EF3232",
"U@	c #F12C2C",
"V@	c #E81E1D",
"W@	c #E21919",
"X@	c #DF1314",
"Y@	c #DB1212",
"Z@	c #D20808",
"`@	c #D00607",
" #	c #CF0505",
".#	c #CD0808",
"+#	c #CA0C0C",
"@#	c #C40C0C",
"##	c #EF3838",
"$#	c #EF3131",
"%#	c #E91F1E",
"&#	c #E21A1A",
"*#	c #E21819",
"=#	c #DF1516",
"-#	c #D90F0F",
";#	c #CD0404",
">#	c #CC0606",
",#	c #C80C0C",
"'#	c #C00C0C",
")#	c #ED3D3D",
"!#	c #EF2B2B",
"~#	c #E21A19",
"{#	c #D60B0B",
"]#	c #CF0605",
"^#	c #CF0404",
"/#	c #C80B0B",
"(#	c #B70B0B",
"_#	c #EA4646",
":#	c #EB2222",
"<#	c #E21616",
"[#	c #DA100F",
"}#	c #D30A0A",
"|#	c #CF0707",
"1#	c #CE0404",
"2#	c #CD0303",
"3#	c #CA0808",
"4#	c #C80A0A",
"5#	c #A90A0A",
"6#	c #EC2F2F",
"7#	c #DE1515",
"8#	c #D70D0E",
"9#	c #CD0304",
"0#	c #CD0202",
"a#	c #C80909",
"b#	c #EB2E2D",
"c#	c #EA2C2C",
"d#	c #EE2525",
"e#	c #D10607",
"f#	c #CC0303",
"g#	c #C80A09",
"h#	c #C50909",
"i#	c #E73535",
"j#	c #EC2727",
"k#	c #CD0302",
"l#	c #CD0101",
"m#	c #CA0606",
"n#	c #C70909",
"o#	c #B60909",
"p#	c #DE4F4F",
"q#	c #E92A2A",
"r#	c #E71D1C",
"s#	c #DF1615",
"t#	c #DE1514",
"u#	c #DD1312",
"v#	c #D20707",
"w#	c #CC0101",
"x#	c #C80808",
"y#	c #C60808",
"z#	c #E82C2C",
"A#	c #E62828",
"B#	c #E92323",
"C#	c #CA0404",
"D#	c #C70808",
"E#	c #C10808",
"F#	c #DE3C3C",
"G#	c #E62626",
"H#	c #E71D1E",
"I#	c #DB1211",
"J#	c #D80E0D",
"K#	c #D60C0D",
"L#	c #CE0505",
"M#	c #CB0101",
"N#	c #C80707",
"O#	c #C50808",
"P#	c #A00707",
"Q#	c #E42828",
"R#	c #E52223",
"S#	c #DB1112",
"T#	c #D60D0D",
"U#	c #D10606",
"V#	c #C90404",
"W#	c #C30808",
"X#	c #D63E3E",
"Y#	c #E32626",
"Z#	c #E22524",
"`#	c #E61E1E",
" $	c #DE1413",
".$	c #CE0303",
"+$	c #C90201",
"@$	c #C40808",
"#$	c #980606",
"$$	c #DF2A2A",
"%$	c #E22222",
"&$	c #E41C1C",
"*$	c #CC0201",
"=$	c #CB0000",
"-$	c #CA0101",
";$	c #C60707",
">$	c #BA0606",
",$	c #E02424",
"'$	c #E02323",
")$	c #E11F1F",
"!$	c #CC0202",
"~$	c #C60606",
"{$	c #C50707",
"]$	c #C20606",
"^$	c #DF2221",
"/$	c #DF1E1E",
"($	c #C70606",
"_$	c #C40606",
":$	c #CA3434",
"<$	c #DC1F1F",
"[$	c #DE1C1C",
"}$	c #CC0000",
"|$	c #C60607",
"1$	c #C40707",
"2$	c #980505",
"3$	c #C83030",
"4$	c #DC1E1E",
"5$	c #DC1D1D",
"6$	c #DB1B1B",
"7$	c #DE1212",
"8$	c #DA1111",
"9$	c #DA0E0E",
"0$	c #CA0202",
"a$	c #C70707",
"b$	c #940606",
"c$	c #D91D1D",
"d$	c #D91B1B",
"e$	c #DB1616",
"f$	c #C90405",
"g$	c #C20707",
"h$	c #D31E1E",
"i$	c #D81A1A",
"j$	c #D81818",
"k$	c #D71717",
"l$	c #D81111",
"m$	c #BA0707",
"n$	c #BE2626",
"o$	c #D41818",
"p$	c #D51818",
"q$	c #D41414",
"r$	c #D51010",
"s$	c #D60E0E",
"t$	c #D50B0A",
"u$	c #C30707",
"v$	c #990606",
"w$	c #BE2020",
"x$	c #D01616",
"y$	c #D31414",
"z$	c #D21414",
"A$	c #D11414",
"B$	c #D01111",
"C$	c #D00F0F",
"D$	c #D10C0C",
"E$	c #D00A09",
"F$	c #CF0808",
"G$	c #CE0606",
"H$	c #CD0606",
"I$	c #CD0707",
"J$	c #C90909",
"K$	c #C70A0A",
"L$	c #A30808",
"M$	c #AD2121",
"N$	c #C61616",
"O$	c #CF1313",
"P$	c #CF1111",
"Q$	c #CE100F",
"R$	c #CC0D0E",
"S$	c #CB0D0D",
"T$	c #C90D0D",
"U$	c #C90C0C",
"V$	c #C90A0A",
"W$	c #BA0909",
"X$	c #B71313",
"Y$	c #C01110",
"Z$	c #C60E0E",
"`$	c #C80D0D",
" %	c #C20C0C",
".%	c #B90B0B",
"+%	c #AB0909",
"                                        . + @ # $ $ % &                                         ",
"                                * = - ; > , ' ) ! ~ { ] ^ / ( _                                 ",
"                            : < [ - ; > } | 1 2 3 4 5 6 7 8 9 0 a b                             ",
"                        c d e [ f g h i j k l m n o p q r s t u v w x y                         ",
"                    z A d B C D E F i j k l G n o p H r s I J K L M N O P Q                     ",
"                  R A d S T U E F i V W l X n o p Y r s Z ` K K  ...+.@.P #.$.                  ",
"                %.A &.*.=.U E F F -.;.l X n o >.Y r ,.I '.K K )...!.~.{.].^./.(.                ",
"              _.A :.<.=.U E [.i j ;.}.X G o o |.1.2.,.3.4.K 5.6.7.~.{.8.9.0.a.b.c.              ",
"            _.A :.<.=.d.E e.V V ;.}.X X o f.|.1.2.,.Z 4.K g...7.~.{.h.9.i.j.k.l.m.n.            ",
"          o.p.q.r.=.d.s.e.V V ;.}.X X o t.u.1.2.,.Z 4.5.v.6.7.~.{.w.9.x.j.k.y.z.A.B.C.          ",
"        D.E.:.F.=.=.s.h i V ;.}.l G G.t.t.H.2.,.I 4.I. .6.7.~.{.w.J.K.j.L.y.M.N.O.P.Q.R.        ",
"        p.&.S.T.d.s.[.i V U.}.V.G W.t.t.q X.,.Y.Z.I. .v.7.7.~.`.i.K.j.L.y.M.N. +.+++@+#+        ",
"      $+&.%+T &+E [.i V *+}.=+n -+t.t.q X.,.Y.Z.I. .v.;+7.{.8.J.K.j.L.k.M.>+,+.+'+)+!+~+{+      ",
"    ]+p.:.T &+&+[.h V V =+m G -+t.t.|.X.,.^+/+I. .v.6.7.{.`.(+K.j.L.k._+N.,+.+'+:+<+[+}+|+1+    ",
"    $+&.2+d.&+[.h i j l m G -+t.t.|.X.Z ^+3+I.I.v.6.~.4+`.(+K.K.L.5+6+N.7+.+'+8+<+9+0+a+b+c+    ",
"    &.d+d.&+[.h -.e+f+m G g+W.t.h+i+j+^+3+I.I.v.k+~.4+`.8.l+K.L.5+z.N.7+.+.+m+<+n+o+p+q+r+s+    ",
"  t+u+v+&+w+h -.U.f+m G n W.x+y+X.j+^+3+z+I.v.;+~.4+w.8.A+K.B+y.z.N.7+.+.+m+)+n+o+C+D+E+F+s+G+  ",
"  d - H+w+I+j e+J+m K+G W.t.y+X.j+Z ^+4. .L+;+~.4+w.8.(+j.L.z.z.N.M+.+.+N+O+n+o+P+D+E+Q+R+S+T+  ",
"  [ U+[.i j j J+m m G W.|.y+X.j+Z ^+4.L+V+;+!.4+4+8.W+j.X+y.z.Y+M+.+Z+`+O+n+o+P+D+E+Q+ @.@+@@@  ",
"#@$@%@i -.j J+l m &@*@|.y+X.j+j+^+=@V+V+k+!.~.4+(+-@j.X+y.z._+M+.+;@;@O+n+o+>@D+E+,@ @.@'@)@!@~@",
"{@]@^@-.j J+l /@(@W.|.y+_@2.j+:@K  .V+k+!.~.4+(+x.j.X+<@z.6+>+[@;@;@O+}@o+o+D+|@1@ @.@.@2@3@4@5@",
"6@7@8@j e+m &@(@W.|.y+r 2.Z 3+K  .V+6.;+~.w.8.x.j.X+9@z.z.>+[@;@;@)+}@o+0@D+|@1@ @a@.@'@b@c@d@e@",
"f@g@h@k i@G j@W.Y |.y+2.'.3+K  .V+6.;+{.k@h.i.l@m@9@z.n@>+[@;@;@)+}@n+o@p@|@1@,@q@.@2@r@s@c@t@u@",
"]@' v@w@G &@W.Y |.x@j+Z 3+=@ .L+6.!.w.w.h.i.x.j.9@n@y@>+z@'+;@N+}@n+A@p@|@|@,@ @.@B@C@s@D@E@F@G@",
"' H@}.G &@(@p y+x@j+Z 3+I@ . .6.7.J@w.h.i.x.j.K@_+y@>+z@[@;@N+n+L@A@p@|@|@,@M@'@B@N@s@O@D@P@Q@R@",
"S@T@U@&@(@p y+r j+Z 3+3+z+v.6.V@{.w.h.9.x.W@K@_+y@>+X@[@;@Y@}@L@A@p@E+|@,@M@'@B@Z@s@`@D@ #.#+#@#",
"##$#U@(@p r r j+Z '.3+K v.%#;+{.w.h.9.&#*#L.M.y@=#7+[@;@Y@}@L@-#p@E+|@1@a@'@B@B@r@s@D@ #;#>#,#'#",
")#{ !#Y |.r 2.Z Z 3+K 6.6.;+~.w.w.9.~#W@L.M._+y@7+'+N+Y@}@L@-#p@E+1@{#a@'@B@B@r@s@]#^#;#;#F@/#(#",
"_#] 6 |.r 2.Z Z :#I.6.6.;+~.w.w.9.j.B+L.<#_+y@,+'+N+Y@}@[#-#A@E+1@{#a@}#'@B@r@|# #^#1#;#2#3#4#5#",
"  6#7 r _@Z ^+K I.6.6.;+~.w.`.9.j.W@L.<#_+y@7#'+N+Y@}@n+L@A@8#1@{# @}#'@B@r@E@ #^#1#;#9#0#4#a#  ",
"  b#c#d#Z 3+:#z+6.6...7.w.8.8.j.W@L.<@_+y@,+[@N+N+}@n+-#A@E+1@{# @}#'@Z@e#E@ #^#^#;#;#2#f#g#h#  ",
"  i#c#j#3+3+K 6.6.6.~.w.8.8.j.W@L.<@y@>+,+[@m+N+<+n+-#p@E+1@{# @}#2@Z@r@E@ # #^#;#;#k#l#m#n#o#  ",
"  p#9 q#3+K  .6.6.r#w.8.8.K.j.L.k.s#>+t#[@u#N+<+n+-#p@E+1@1@ @a@2@Z@v#O@E@ #^#;#9#0#l#w#x#y#    ",
"    z#A#B# .k+k+~.w.8.8.l+j.k.y._+>+7#[@'+N+Y@L@-#p@D+1@1@ @a@2@Z@v#O@E@ #^#;#2#0#l#w#C#D#E#    ",
"    F#A#G#k+;+H#w.h.8.i.j.L.y._+>+>+[@'+Y@I#L@-#p@J#K#1@ @.@2@Z@v#O@E@ #L#2#2#0#0#l#M#N#O#P#    ",
"      Q#x R#;+w.h.8.i.W@L.y.M.>+>+[@;@S#<+L@-#-#p@T#,@ @.@2@Z@Z@U#E@L#1#2#2#k#0#l#w#V#y#W#      ",
"      X#Y#Z#`#h.8.i.L.L.y.M.>+>+ $;@N+<+[#-#-#p@T# @ @.@'@Z@Z@U#E@1#1#.$2#2#0#l#M#+$y#@$#$      ",
"        $$P %$&$i.W@L.y.M.y@>+,+m+N+<+}@-#-#p@E+ @ @a@'@Z@Z@U# #L#1#.$2#2#0#*$=$-$;$@$>$        ",
"          ,$'$)$W@L.<@M.y@7# $m+N+<+}@-#-#q+|@ @ @a@'@Z@Z@U# #L#1#1#2#2#!$w#=$=$~${$]$          ",
"            ^$/./$<@M.y@t#,+m+N+<+}@-#A@q+|@ @ @ @'@Z@b@e# # #1#1#2#2#*$w#=$=$(${$_$            ",
"            :$b.<$[$y@7#,+m+N+Y@<+-#p@q+|@{# @ @'@2@r@r@ # #1#1#2#2#w#w#}$M#|${$1$2$            ",
"              3$4$5$6$ +7$N+Y@8$9$p@p@|@1@ @ @'@Z@r@r@ # #1#1#2#0#*$w#w#0$a${$1$b$              ",
"                  c$d$Q.e$Y@8$L@p@p@E+1@ @M@B@Z@r@r@O@ #1#;#2#0#!$w#w#f$y#{$g$                  ",
"                    h$i$j$k$l$p@p@8#1@ @a@'@Z@v#r@O@ #1#2#2#0#0#w#C#a$y#{$m$                    ",
"                      n$o$p$|+q$r$s$t$a@.@Z@v#r@O@L#1#2#2#0#f#m#x#y#y#u$v$                      ",
"                          w$x$y$z$A$B$C$D$3@E$F$G$H$I$F@3#J$K$n#y#E#L$                          ",
"                              M$N$O$P$@@Q$d@R$S$S$T$U$V$4#K$n#W$                                ",
"                                      X$Y$Z$`$T$T$@# %.%+%                                      "};
