/* XPM */
static const char * record_xpm[] = {
"24 24 254 2",
"  	c None",
". 	c #7A2122",
"+ 	c #CE4A4E",
"@ 	c #E35E61",
"# 	c #E9686A",
"$ 	c #E96265",
"% 	c #E14F52",
"& 	c #CC393C",
"* 	c #79181A",
"= 	c #791F21",
"- 	c #DE585B",
"; 	c #ED7C7F",
"> 	c #EC7579",
", 	c #EB6F72",
"' 	c #EB696C",
") 	c #EA6466",
"! 	c #E85C60",
"~ 	c #E8565A",
"{ 	c #E75054",
"] 	c #D9363A",
"^ 	c #771315",
"/ 	c #C03E41",
"( 	c #ED787A",
"_ 	c #ED7B7E",
": 	c #EC7578",
"< 	c #EB6E71",
"[ 	c #EA686B",
"} 	c #E96165",
"| 	c #E85C5F",
"1 	c #E85559",
"2 	c #E74F52",
"3 	c #E7494C",
"4 	c #E54346",
"5 	c #E43C3F",
"6 	c #BC1E22",
"7 	c #CD4649",
"8 	c #ED7A7D",
"9 	c #ED797C",
"0 	c #EC7376",
"a 	c #EB6E70",
"b 	c #EA6769",
"c 	c #E96064",
"d 	c #E85A5E",
"e 	c #E85458",
"f 	c #E74E51",
"g 	c #E6474B",
"h 	c #E54145",
"i 	c #E43B3F",
"j 	c #E43539",
"k 	c #E22E32",
"l 	c #C8191E",
"m 	c #C03F42",
"n 	c #ED7B7D",
"o 	c #ED787B",
"p 	c #EC7274",
"q 	c #EB6C6F",
"r 	c #EA6669",
"s 	c #E95F62",
"t 	c #E8595C",
"u 	c #E75356",
"v 	c #E74C50",
"w 	c #E6464A",
"x 	c #E54044",
"y 	c #E43A3E",
"z 	c #E33437",
"A 	c #E22D32",
"B 	c #E2272B",
"C 	c #E12125",
"D 	c #B91114",
"E 	c #792022",
"F 	c #ED7779",
"G 	c #EC7173",
"H 	c #EA6B6E",
"I 	c #EA6468",
"J 	c #E95E62",
"K 	c #E8585B",
"L 	c #E75255",
"M 	c #E74B4F",
"N 	c #E64549",
"O 	c #E53F43",
"P 	c #E4393D",
"Q 	c #E43236",
"R 	c #E22C30",
"S 	c #E2262B",
"T 	c #E12024",
"U 	c #E0191D",
"V 	c #DF1419",
"W 	c #760709",
"X 	c #DE595D",
"Y 	c #ED7679",
"Z 	c #EC7072",
"` 	c #EA696C",
" .	c #EA6367",
"..	c #E95D60",
"+.	c #E8575A",
"@.	c #E75154",
"#.	c #E74A4E",
"$.	c #E54348",
"%.	c #E43E41",
"&.	c #E4373C",
"*.	c #E33135",
"=.	c #E22B2F",
"-.	c #E22529",
";.	c #E11E23",
">.	c #DF181C",
",.	c #DF1318",
"'.	c #D40F13",
").	c #7A2123",
"!.	c #ED7577",
"~.	c #E95C5F",
"{.	c #E74F53",
"].	c #E6494D",
"^.	c #E43C40",
"/.	c #E4363A",
"(.	c #E33034",
"_.	c #E22A2E",
":.	c #E12328",
"<.	c #E01D22",
"[.	c #DF171B",
"}.	c #DF1418",
"|.	c #DF1217",
"1.	c #DF1116",
"2.	c #DE1016",
"3.	c #760609",
"4.	c #CD4548",
"5.	c #EB6D70",
"6.	c #EA676B",
"7.	c #E96164",
"8.	c #E95B5D",
"9.	c #E85558",
"0.	c #E74D52",
"a.	c #E6484C",
"b.	c #E54245",
"c.	c #E43439",
"d.	c #E32F33",
"e.	c #E1292D",
"f.	c #E12226",
"g.	c #E01C20",
"h.	c #DF161A",
"i.	c #DF1317",
"j.	c #DF1216",
"k.	c #DE1015",
"l.	c #C60B0F",
"m.	c #E25558",
"n.	c #E95F63",
"o.	c #E95A5C",
"p.	c #E85356",
"q.	c #E64D51",
"r.	c #E54043",
"s.	c #E43438",
"t.	c #E32D32",
"u.	c #E1282C",
"v.	c #E12126",
"w.	c #E11B1F",
"x.	c #DE1116",
"y.	c #DE0F14",
"z.	c #DE0E13",
"A.	c #D80C11",
"B.	c #E9585C",
"C.	c #E64C50",
"D.	c #E64649",
"E.	c #E4393C",
"F.	c #E43337",
"G.	c #E22D31",
"H.	c #E1262A",
"I.	c #E11F24",
"J.	c #E01A1E",
"K.	c #DE1014",
"L.	c #DE0D12",
"M.	c #DD0B10",
"N.	c #E75559",
"O.	c #E8575B",
"P.	c #E75055",
"Q.	c #E64B4E",
"R.	c #E64447",
"S.	c #E53D42",
"T.	c #E12529",
"U.	c #DE0F13",
"V.	c #DE0C12",
"W.	c #DE0C11",
"X.	c #DD090E",
"Y.	c #E04447",
"Z.	c #E64346",
"`.	c #E53D41",
" +	c #E4363B",
".+	c #E33035",
"++	c #E12428",
"@+	c #E11D22",
"#+	c #E0171C",
"$+	c #DE1115",
"%+	c #DE0D13",
"&+	c #DE0D11",
"*+	c #DE0B10",
"=+	c #DE0A10",
"-+	c #D7080D",
";+	c #CB2F33",
">+	c #E64146",
",+	c #E3363A",
"'+	c #E2292D",
")+	c #E11D21",
"!+	c #E0161B",
"~+	c #DE0A0F",
"{+	c #DE090E",
"]+	c #C5070B",
"^+	c #781416",
"/+	c #E64045",
"(+	c #E33438",
"_+	c #E32E32",
":+	c #E2272C",
"<+	c #E11B20",
"[+	c #DF1519",
"}+	c #DE0E12",
"|+	c #DE0B0F",
"1+	c #DE080D",
"2+	c #750305",
"3+	c #D82A2E",
"4+	c #E33337",
"5+	c #E32D30",
"6+	c #E1262B",
"7+	c #E12025",
"8+	c #E01A1F",
"9+	c #DE080E",
"0+	c #DE070C",
"a+	c #D3050A",
"b+	c #770E11",
"c+	c #E22A2F",
"d+	c #E1252A",
"e+	c #E0191E",
"f+	c #DE0C10",
"g+	c #DE090D",
"h+	c #DE070D",
"i+	c #DE060A",
"j+	c #750205",
"k+	c #BB1418",
"l+	c #E01E22",
"m+	c #DE080C",
"n+	c #DE060B",
"o+	c #DE050A",
"p+	c #B80308",
"q+	c #C60F14",
"r+	c #DF1015",
"s+	c #C30307",
"t+	c #B9090E",
"u+	c #DE040A",
"v+	c #750507",
"w+	c #D3090E",
"x+	c #D30308",
"y+	c #750204",
"z+	c #760306",
"A+	c #D7060B",
"B+	c #DD050A",
"C+	c #DD0409",
"D+	c #D70408",
"E+	c #C40308",
"                                                ",
"                . + @ # $ % & *                 ",
"            = - ; > , ' ) ! ~ { ] ^             ",
"          / ( _ : < [ } | 1 2 3 4 5 6           ",
"        7 8 9 0 a b c d e f g h i j k l         ",
"      m n o p q r s t u v w x y z A B C D       ",
"    E 9 F G H I J K L M N O P Q R S T U V W     ",
"    X Y Z `  ...+.@.#.$.%.&.*.=.-.;.>.V ,.'.    ",
"  ).!., [ $ ~.1 {.].4 ^./.(._.:.<.[.}.|.1.2.3.  ",
"  4.5.6.7.8.9.0.a.b.5 c.d.e.f.g.h.i.j.2.2.k.l.  ",
"  m.r n.o.p.q.w r.y s.t.u.v.w.V |.1.x.k.y.z.A.  ",
"  | s B.L C.D.O E.F.G.H.I.J.}.1.x.k.K.z.L.L.M.  ",
"  N.O.P.Q.R.S.&.Q R T.;.U i.x.2.k.U.z.L.V.W.X.  ",
"  Y.{.].Z.`. +.+_.++@+#+1.$+k.y.z.%+&+W.*+=+-+  ",
"  ;+a.>+5 ,+d.'+f.)+!+2.$+K.z.z.L.W.*+=+~+{+]+  ",
"  ^+/+y (+_+:+v.<+[+$+k.U.}+L.V.W.|+~+{+{+1+2+  ",
"    3+4+5+6+7+8+,.$+y.z.}+L.W.*+|+{+9+1+0+a+    ",
"    b+c+d+I.e+|.K.U.L.L.W.f+~+~+{+g+h+0+i+j+    ",
"      k+l+#+1.y.}+L.W.W.*+~+{+1+m+0+n+o+p+      ",
"        q+r+z.}+L.W.*+~+{+{+1+h+0+o+o+s+        ",
"          t+&+V.*+~+~+{+1+1+0+n+u+o+p+          ",
"            v+w+~+{+{+m+0+n+o+o+x+y+            ",
"                z+]+A+B+C+D+E+j+                ",
"                                                "};
