/* XPM */
static const char * resize_xpm[] = {
"16 16 55 1",
" 	c None",
".	c #000000",
"+	c #868585",
"@	c #8B8989",
"#	c #918E8E",
"$	c #959393",
"%	c #9C9A9A",
"&	c #A9A7A7",
"*	c #AEADAD",
"=	c #B5B3B2",
"-	c #B5B5B4",
";	c #BAB8B8",
">	c #8B8889",
",	c #908D8D",
"'	c #969393",
")	c #9C9999",
"!	c #A09D9D",
"~	c #A5A3A3",
"{	c #AAA7A7",
"]	c #ACA9A9",
"^	c #A9A6A6",
"/	c #878686",
"(	c #8B8A8A",
"_	c #939090",
":	c #979494",
"<	c #9D9B9B",
"[	c #A29F9F",
"}	c #A6A4A5",
"|	c #A5A2A2",
"1	c #9F9C9C",
"2	c #A19E9E",
"3	c #9A9797",
"4	c #9A9798",
"5	c #8C8A8A",
"6	c #949292",
"7	c #A6A5A5",
"8	c #AAA8A8",
"9	c #B0ADAD",
"0	c #949293",
"a	c #949393",
"b	c #8A8787",
"c	c #979595",
"d	c #989797",
"e	c #8F8C8C",
"f	c #8E8C8C",
"g	c #878484",
"h	c #8D8A8A",
"i	c #8C8A8B",
"j	c #898686",
"k	c #838080",
"l	c #858282",
"m	c #868383",
"n	c #858383",
"o	c #858484",
"p	c #848282",
"                ",
"  ............  ",
" .............. ",
" ..+@#$%&*=-;.. ",
" ..+>,')!~{]^.. ",
" ../(_:)<[~}|.. ",
" .........121.. ",
" .........343.. ",
" ..56789..0aa.. ",
" ..b#cd:..eef.. ",
" ..gbhfi..jjj.. ",
" ..klmmn..ooo.. ",
" .........ppp.. ",
" .............. ",
"  ............  ",
"                "};
