/* XPM */
static const char * rgb_xpm[] = {
"16 16 76 1",
" 	c None",
".	c #930213",
"+	c #CC041B",
"@	c #AF0617",
"#	c #15B815",
"$	c #16C016",
"%	c #0F8B0F",
"&	c #6C010E",
"*	c #E8041F",
"=	c #FE0623",
"-	c #C3071B",
";	c #18CC18",
">	c #1CEB1C",
",	c #19D919",
"'	c #0B660B",
")	c #6B010D",
"!	c #F60521",
"~	c #C2071B",
"{	c #18CD18",
"]	c #1BE51B",
"^	c #0B650B",
"/	c #E7051F",
"(	c #C1071B",
"_	c #19CE18",
":	c #950213",
"<	c #BF071A",
"[	c #19CF18",
"}	c #108E10",
"|	c #CE041C",
"1	c #B60719",
"2	c #18D118",
"3	c #16C116",
"4	c #E8051F",
"5	c #AD0617",
"6	c #19D819",
"7	c #EC0520",
"8	c #FD0623",
"9	c #E1041E",
"0	c #7C0231",
"a	c #1D028B",
"b	c #0D2179",
"c	c #118820",
"d	c #19DC19",
"e	c #D1041C",
"f	c #FC0522",
"g	c #D3041D",
"h	c #68023C",
"i	c #1903A2",
"j	c #1505EE",
"k	c #1706F7",
"l	c #1505E5",
"m	c #0E148E",
"n	c #0F7728",
"o	c #18D318",
"p	c #16C316",
"q	c #660110",
"r	c #53024E",
"s	c #1403B7",
"t	c #1605F2",
"u	c #1505EC",
"v	c #0F0D9E",
"w	c #0F6336",
"x	c #0C6D0D",
"y	c #1404E4",
"z	c #1404DF",
"A	c #0A0272",
"B	c #09026F",
"C	c #0A0276",
"D	c #1505E8",
"E	c #1505E7",
"F	c #0A0275",
"G	c #0D039B",
"H	c #1204D2",
"I	c #1505E9",
"J	c #1204D0",
"K	c #0D0298",
"                ",
"     .+@#$%     ",
"   &*==-;>>,'   ",
"  )!===~{>>>]^  ",
"  /====(_>>>>,  ",
" :=====<[>>>>>} ",
" |=====12>>>>>3 ",
" 4=====5;>>>>>6 ",
" 7==890abcd>>>, ",
" efghijkklmno>p ",
" qrstkkkkkkuvwx ",
"  ykkkkkkkkkkz  ",
"  AtkkkkkkkktB  ",
"   CDkkkkkkEF   ",
"     GHIDJK     ",
"                "};
