/* XPM */
static const char * save_xpm[] = {
"32 32 273 2",
"  	c None",
". 	c #244E8B",
"+ 	c #214B87",
"@ 	c #204A87",
"# 	c #CE5C00",
"$ 	c #214A87",
"% 	c #234C8A",
"& 	c #214B88",
"* 	c #B0C6DF",
"= 	c #BDD0E5",
"- 	c #ABC1DA",
"; 	c #F8AC61",
"> 	c #F8A859",
", 	c #8AA7CB",
"' 	c #95B1D2",
") 	c #87A6CB",
"! 	c #BFD1E6",
"~ 	c #5D8BC0",
"{ 	c #4875AD",
"] 	c #F47F0D",
"^ 	c #F57900",
"/ 	c #3C69A5",
"( 	c #4978B2",
"_ 	c #90ADD0",
": 	c #BFD2E7",
"< 	c #3C67A1",
"[ 	c #E2E2DF",
"} 	c #EEEEEC",
"| 	c #33609B",
"1 	c #90ACD0",
"2 	c #C0D2E7",
"3 	c #90B0D5",
"4 	c #39659F",
"5 	c #F0F0EE",
"6 	c #325E99",
"7 	c #81A3CB",
"8 	c #8EACD0",
"9 	c #C1D3E8",
"0 	c #6290C4",
"a 	c #3A659F",
"b 	c #5C605F",
"c 	c #BABDB6",
"d 	c #335E9A",
"e 	c #4E7DB6",
"f 	c #8DABD0",
"g 	c #C1D4E8",
"h 	c #6492C5",
"i 	c #3B669F",
"j 	c #F4F4F3",
"k 	c #335F9B",
"l 	c #507FB7",
"m 	c #8CABCF",
"n 	c #C2D4E9",
"o 	c #6693C6",
"p 	c #3B66A0",
"q 	c #F7F7F6",
"r 	c #34609B",
"s 	c #5180B8",
"t 	c #8BAACF",
"u 	c #C3D5E9",
"v 	c #6795C7",
"w 	c #5C6160",
"x 	c #35609B",
"y 	c #5382B9",
"z 	c #8AAAD0",
"A 	c #6997C9",
"B 	c #3D68A1",
"C 	c #FCFCFB",
"D 	c #35619C",
"E 	c #5584BB",
"F 	c #89A9CF",
"G 	c #C4D6EA",
"H 	c #6B98CA",
"I 	c #FEFEFE",
"J 	c #36629C",
"K 	c #5685BC",
"L 	c #88A9CF",
"M 	c #C3D6EA",
"N 	c #6C9ACB",
"O 	c #3E69A2",
"P 	c #37629D",
"Q 	c #5887BD",
"R 	c #87A9CF",
"S 	c #C2D5EA",
"T 	c #6E9BCC",
"U 	c #3F6AA2",
"V 	c #37639D",
"W 	c #5A88BE",
"X 	c #86A7CF",
"Y 	c #C1D4E9",
"Z 	c #709DCD",
"` 	c #3F6AA3",
" .	c #38649E",
"..	c #5B8ABF",
"+.	c #85A8D0",
"@.	c #BFD3E9",
"#.	c #719ECE",
"$.	c #426DA5",
"%.	c #39669F",
"&.	c #84A8D0",
"*.	c #BDD2E8",
"=.	c #5885B9",
"-.	c #416DA5",
";.	c #406BA3",
">.	c #3C68A1",
",.	c #3B67A0",
"'.	c #3A669F",
").	c #3A66A0",
"!.	c #4E7AB1",
"~.	c #5F8DC2",
"{.	c #84A7D0",
"].	c #BBD1E8",
"^.	c #709DCE",
"/.	c #6F9CCD",
"(.	c #6E9CCC",
"_.	c #6D9ACB",
":.	c #6C99CA",
"<.	c #6A97C9",
"[.	c #6896C8",
"}.	c #6694C7",
"|.	c #6593C6",
"1.	c #6391C5",
"2.	c #6290C3",
"3.	c #618FC3",
"4.	c #B9CFE7",
"5.	c #63798E",
"6.	c #565855",
"7.	c #555753",
"8.	c #565956",
"9.	c #536B84",
"0.	c #4976AD",
"a.	c #4B78AE",
"b.	c #4E7AB0",
"c.	c #5987BC",
"d.	c #83A8D0",
"e.	c #B8CEE6",
"f.	c #565955",
"g.	c #CACDC5",
"h.	c #DADDD7",
"i.	c #DFE1DC",
"j.	c #E3E5E1",
"k.	c #E7E9E5",
"l.	c #ECEDEA",
"m.	c #EFF0EE",
"n.	c #ECEEEB",
"o.	c #E9EBE8",
"p.	c #E7E8E5",
"q.	c #E3E4E1",
"r.	c #DCDEDA",
"s.	c #D1D2CE",
"t.	c #575A57",
"u.	c #6D98CA",
"v.	c #6E9AC9",
"w.	c #6D99C7",
"x.	c #5581B6",
"y.	c #82A7D0",
"z.	c #B6CDE6",
"A.	c #DCDFD9",
"B.	c #B4BAAD",
"C.	c #6A6F6B",
"D.	c #5C5E5A",
"E.	c #6F7271",
"F.	c #D9DAD5",
"G.	c #D2D4CF",
"H.	c #CBCEC7",
"I.	c #C4C8C1",
"J.	c #BDC1BA",
"K.	c #BDC1B9",
"L.	c #DBDDD9",
"M.	c #6B97C9",
"N.	c #6A96C8",
"O.	c #769FCD",
"P.	c #5A86BB",
"Q.	c #81A7D1",
"R.	c #B4CCE5",
"S.	c #DFE2DC",
"T.	c #B7BDB1",
"U.	c #5383BA",
"V.	c #5482B9",
"W.	c #D2D5CF",
"X.	c #CBCEC8",
"Y.	c #BEC1BA",
"Z.	c #B8BCB4",
"`.	c #C0C4BD",
" +	c #DADCD8",
".+	c #6B99CA",
"++	c #6A98C9",
"@+	c #7CA4D0",
"#+	c #5D8ABE",
"$+	c #6895C8",
"%+	c #81A6D1",
"&+	c #B3CBE5",
"*+	c #E2E4DF",
"=+	c #BEC3B8",
"-+	c #5E8CC1",
";+	c #CED0CA",
">+	c #C7CAC3",
",+	c #C0C3BC",
"'+	c #B9BDB5",
")+	c #C5C8C2",
"!+	c #6C99CB",
"~+	c #83A9D3",
"{+	c #5E8BBE",
"]+	c #80A7D1",
"^+	c #B0C9E4",
"/+	c #E4E6E2",
"(+	c #C4C9BF",
"_+	c #6795C8",
":+	c #6895C7",
"<+	c #C9CCC6",
"[+	c #C2C6BE",
"}+	c #BBBFB8",
"|+	c #BBBFB7",
"1+	c #C3C6BF",
"2+	c #CACDC8",
"3+	c #DBDCD9",
"4+	c #6F9CCC",
"5+	c #8AAED5",
"6+	c #608DBF",
"7+	c #80A6D1",
"8+	c #AFC8E3",
"9+	c #80A8D3",
"0+	c #CBCFC7",
"a+	c #C5C8C1",
"b+	c #C0C3BD",
"c+	c #C8CBC5",
"d+	c #D0D2CD",
"e+	c #90B3D8",
"f+	c #618FC1",
"g+	c #224B87",
"h+	c #547AAA",
"i+	c #A7C2E1",
"j+	c #7FA8D3",
"k+	c #E9EBE7",
"l+	c #D2D5CE",
"m+	c #676B68",
"n+	c #5A5D5B",
"o+	c #595D5B",
"p+	c #616561",
"q+	c #CDD0CA",
"r+	c #D5D7D3",
"s+	c #D3D5D0",
"t+	c #92B4D9",
"u+	c #6390C2",
"v+	c #7FA8D2",
"w+	c #234B84",
"x+	c #5279AA",
"y+	c #A8C3E1",
"z+	c #A6C2E0",
"A+	c #E9EAE7",
"B+	c #EDEDEB",
"C+	c #EBECEA",
"D+	c #E3E4E2",
"E+	c #DBDDDA",
"F+	c #D7D9D6",
"G+	c #D0D2CE",
"H+	c #CBCDC8",
"I+	c #CCCEC9",
"J+	c #CDCFCB",
"K+	c #CDCFCC",
"L+	c #C4C6C2",
"M+	c #8AAFD6",
"N+	c #88AED6",
"O+	c #9EBCDD",
"P+	c #79A0CB",
"Q+	c #82A9D3",
"R+	c #78A1CD",
"S+	c #224B88",
"T+	c #234B86",
"U+	c #575A58",
"V+	c #565A58",
"W+	c #565957",
"X+	c #21487F",
"                                                                ",
"                                                                ",
"      . + @ @ # # # # # # # # # # # # # # # # # # # @ @ $ %     ",
"      & * = - ; > > > > > > > > > > > > > > > > > ; , ' ) +     ",
"      @ ! ~ { ] ^ ^ ^ ^ ^ ^ ^ ^ ^ ^ ^ ^ ^ ^ ^ ^ ^ ] / ( _ @     ",
"      @ : @ < [ } } } } } } } } } } } } } } } } } [ | @ 1 @     ",
"      @ 2 3 4 [ 5 5 5 5 5 5 5 5 5 5 5 5 5 5 5 5 5 [ 6 7 8 @     ",
"      @ 9 0 a [ b c c c c c c c c c c c c c c c b [ d e f @     ",
"      @ g h i [ j j j j j j j j j j j j j j j j j [ k l m @     ",
"      @ n o p [ q q q q q q q q q q q q q q q q q [ r s t @     ",
"      @ u v < [ w c c c c c c c c c c c c c c c w [ x y z @     ",
"      @ u A B [ C C C C C C C C C C C C C C C C C [ D E F @     ",
"      @ G H B [ I I I I I I I I I I I I I I I I I [ J K L @     ",
"      @ M N O [ w c c c c c c c c c c c c c c c w [ P Q R @     ",
"      @ S T U [ I I I I I I I I I I I I I I I I I [ V W X @     ",
"      @ Y Z ` [ I I I I I I I I I I I I I I I I I [  ...+.@     ",
"      @ @.#.$.[ [ [ [ [ [ [ [ [ [ [ [ [ [ [ [ [ [ [ %.~ &.@     ",
"      @ *.#.=.-.;.;.` ` U O O B B B >.< ,.p p i '.).!.~.{.@     ",
"      @ ].#.#.#.#.#.^./.(.T _.:.H <.A [.v }.|.h 1.0 2.3.{.@     ",
"      @ 4.#.#.#.5.6.7.7.7.7.7.7.7.7.7.7.7.8.9.0.a.b.c.0 d.@     ",
"      @ e.#.#.#.f.g.h.i.j.k.l.m.n.o.p.q.r.s.t.u.v.w.x.h y.@     ",
"      @ z.#.#.#.7.A.B.C.D.D.E.F.G.H.I.J.K.L.7.M.N.O.P.o Q.@     ",
"      @ R.#.#.#.7.S.T.7.U.V.7.W.X.I.Y.Z.`. +7..+++@+#+$+%+@     ",
"      @ &+#.#.#.7.*+=+7.-+-+7.;+>+,+'+J.)+ +7._.!+~+{+A ]+@     ",
"      @ ^+#.#.#.7./+(+7._+:+7.<+[+}+|+1+2+3+7.4+T 5+6+H 7+@     ",
"      @ 8+9+#.#.7.k.0+7.#.#.7.a+Y.Z.b+c+d+L.7.^./.e+f+_.]+@     ",
"      g+h+i+j+#.7.k+l+m+n+o+p+,+'+J.)+q+r+s+7.#.#.t+u+(.v+@     ",
"        w+x+y+z+7.A+B+C+D+E+F+G+H+I+J+G+K+L+7.M+N+O+P+Q+R+S+    ",
"          T+@ @ 7.U+U+U+V+V+V+W+V+V+U+U+U+V+7.@ @ @ @ @ & X+    ",
"                                                                ",
"                                                                ",
"                                                                "};
