/* XPM */
static const char * snapshot_small_xpm[] = {
"16 16 72 1",
" 	c None",
".	c #1E1C1E",
"+	c #454243",
"@	c #464344",
"#	c #373437",
"$	c #181518",
"%	c #181618",
"&	c #26242A",
"*	c #2D2A32",
"=	c #323038",
"-	c #302D36",
";	c #53505B",
">	c #ACA8A2",
",	c #54525F",
"'	c #504D5C",
")	c #62606C",
"!	c #5B5866",
"~	c #4E4C5B",
"{	c #161416",
"]	c #19181A",
"^	c #383642",
"/	c #43404E",
"(	c #403D4A",
"_	c #524E5B",
":	c #8E8C8D",
"<	c #8E8B8D",
"[	c #746F7C",
"}	c #756E74",
"|	c #544C52",
"1	c #5D565B",
"2	c #817A81",
"3	c #5E5A6A",
"4	c #555263",
"5	c #171518",
"6	c #4C4857",
"7	c #625F6E",
"8	c #615A60",
"9	c #2E272E",
"0	c #2F282F",
"a	c #7B757C",
"b	c #7E7982",
"c	c #484348",
"d	c #948E90",
"e	c #534F52",
"f	c #504A4F",
"g	c #696573",
"h	c #78737C",
"i	c #6C686B",
"j	c #C4BFBF",
"k	c #807C7E",
"l	c #393238",
"m	c #74707C",
"n	c #7E7983",
"o	c #524B50",
"p	c #686472",
"q	c #615E6C",
"r	c #635D62",
"s	c #302930",
"t	c #706B78",
"u	c #767076",
"v	c #575156",
"w	c #807B82",
"x	c #5D5A6A",
"y	c #2E2B33",
"z	c #34313A",
"A	c #322F37",
"B	c #4C4958",
"C	c #535060",
"D	c #545061",
"E	c #64606F",
"F	c #5D5A69",
"G	c #161417",
"                ",
"                ",
"                ",
" .+@@#$$$$$$$$$ ",
"%&*=-;>>,')!~~~{",
"]&^/(_:<[}|12345",
"]&^/(64789990a45",
"]&^/(64b9cde9fg5",
"]&^/(64h9ijk9lm5",
"]&^/(64n99999op5",
"]&^/(64qr999sa45",
"]&^/(644tuv8wx45",
"]&yzABCCCDEFCCCG",
" $$$$$$$$$$$$$$ ",
"                ",
"                "};
