/* XPM */
static const char * snapshot_xpm[] = {
"32 32 184 2",
"  	c None",
". 	c #1C1A1A",
"+ 	c #1F1C1C",
"@ 	c #1E1B1B",
"# 	c #1D1B1B",
"$ 	c #1F1B1D",
"% 	c #797778",
"& 	c #7A7879",
"* 	c #7B7878",
"= 	c #7D7B7C",
"- 	c #5D5C5D",
"; 	c #181518",
"> 	c #191719",
", 	c #333038",
"' 	c #322F37",
") 	c #323038",
"! 	c #312F37",
"~ 	c #34323A",
"{ 	c #42404D",
"] 	c #484653",
"^ 	c #504D58",
"/ 	c #67666B",
"( 	c #4B4956",
"_ 	c #3C3944",
": 	c #191619",
"< 	c #312E37",
"[ 	c #1D1B1F",
"} 	c #26242B",
"| 	c #2A272F",
"1 	c #2D2A32",
"2 	c #34323B",
"3 	c #222025",
"4 	c #524F5F",
"5 	c #77737B",
"6 	c #E4E1CA",
"7 	c #DFDBD1",
"8 	c #666370",
"9 	c #555263",
"0 	c #565364",
"a 	c #666271",
"b 	c #726E7A",
"c 	c #6B6675",
"d 	c #585566",
"e 	c #42404B",
"f 	c #161416",
"g 	c #1D1B1E",
"h 	c #2F2C35",
"i 	c #35333E",
"j 	c #3C3945",
"k 	c #413E4B",
"l 	c #454352",
"m 	c #4B4858",
"n 	c #333039",
"o 	c #737079",
"p 	c #DAD7C5",
"q 	c #E4E0CA",
"r 	c #64616D",
"s 	c #5C5868",
"t 	c #918D95",
"u 	c #B4AEB1",
"v 	c #9E989B",
"w 	c #8D868A",
"x 	c #979194",
"y 	c #B0A9AC",
"z 	c #A19BA1",
"A 	c #686573",
"B 	c #514E5E",
"C 	c #171517",
"D 	c #1B191C",
"E 	c #2F2C36",
"F 	c #35323B",
"G 	c #433F4B",
"H 	c #6C6776",
"I 	c #B2ABAE",
"J 	c #6D666A",
"K 	c #2F292F",
"L 	c #2E272E",
"M 	c #514B50",
"N 	c #ACA5A8",
"O 	c #847E89",
"P 	c #171518",
"Q 	c #635F6E",
"R 	c #B0A8AB",
"S 	c #433C42",
"T 	c #332C32",
"U 	c #9A9397",
"V 	c #7D7985",
"W 	c #A19BA0",
"X 	c #474146",
"Y 	c #322C32",
"Z 	c #A49EA1",
"` 	c #5E5A6A",
" .	c #706D7A",
"..	c #867F83",
"+.	c #524C50",
"@.	c #938D95",
"#.	c #969097",
"$.	c #4B4449",
"%.	c #302930",
"&.	c #696769",
"*.	c #8A8788",
"=.	c #8E8B8C",
"-.	c #747273",
";.	c #352F35",
">.	c #ACA4A7",
",.	c #ABA4A8",
"'.	c #524E51",
").	c #BFBBBB",
"!.	c #F8F0F0",
"~.	c #E0DADA",
"{.	c #6C696B",
"].	c #9F989B",
"^.	c #5A5665",
"/.	c #A9A2A6",
"(.	c #3F3B3F",
"_.	c #918E8F",
":.	c #E9E2E2",
"<.	c #EFE8E8",
"[.	c #ACA8A8",
"}.	c #595558",
"|.	c #928B8F",
"1.	c #625E6D",
"2.	c #AAA4A8",
"3.	c #2F282F",
"4.	c #3B363B",
"5.	c #666365",
"6.	c #6A6769",
"7.	c #474247",
"8.	c #9E989C",
"9.	c #5A5666",
"0.	c #979298",
"a.	c #4C464B",
"b.	c #AAA3A7",
"c.	c #6F6C79",
"d.	c #888185",
"e.	c #554D53",
"f.	c #918C94",
"g.	c #A0999F",
"h.	c #4A4449",
"i.	c #A8A0A3",
"j.	c #5E5969",
"k.	c #AEA6AA",
"l.	c #443E43",
"m.	c #332D33",
"n.	c #9C9699",
"o.	c #7C7884",
"p.	c #696674",
"q.	c #B3ACAF",
"r.	c #706A6E",
"s.	c #312B31",
"t.	c #534D51",
"u.	c #AEA7AA",
"v.	c #827C87",
"w.	c #1B1A1D",
"x.	c #34313A",
"y.	c #8F8B94",
"z.	c #A19A9D",
"A.	c #928C90",
"B.	c #9B9498",
"C.	c #9F999F",
"D.	c #676473",
"E.	c #171417",
"F.	c #181718",
"G.	c #2D2C33",
"H.	c #201D21",
"I.	c #2B2931",
"J.	c #302D35",
"K.	c #34313B",
"L.	c #373540",
"M.	c #3B3842",
"N.	c #232025",
"O.	c #504D5C",
"P.	c #575465",
"Q.	c #44424E",
"R.	c #29272D",
"S.	c #2B272F",
"T.	c #2C2830",
"U.	c #2D2931",
"V.	c #302D34",
"W.	c #423F4B",
"X.	c #4D4957",
"Y.	c #3F3C48",
"Z.	c #171415",
"`.	c #151315",
"                                                                ",
"                                                                ",
"                                                                ",
"                                                                ",
"                                                                ",
"        . + + + @ #                                             ",
"      $ % & & & * = - ; ; ; ; ; ; ; ; ; ; ; ; ; ; ; ; ;         ",
"    > , ' ) ! ) ~ { ] ^ / / / / ( ] ] ] ] ] ] ] ] ] ] ] _ ;     ",
"  : < [ } | 1 < 2 3 4 5 6 7 7 6 8 9 9 0 a b c d 9 9 9 9 9 e f   ",
"  ; g h i j k l m n { o 6 p p q r s t u v w x y z A 9 9 9 B C   ",
"  C D E i j k l m F G 9 9 9 9 9 H I J K L L L L M N O 9 9 4 P   ",
"  C D E i j k l m F G 9 9 9 9 Q R S L L L L L L L T U V 9 4 P   ",
"  C D E i j k l m F G 9 9 9 9 W X L L L L L L L L L Y Z ` 4 P   ",
"  C D E i j k l m F G 9 9 9  ...L L L L L L L L L L L +.@.4 P   ",
"  C D E i j k l m F G 9 9 9 #.$.L L %.&.*.=.-.;.L L L L >.4 P   ",
"  C D E i j k l m F G 9 9 9 ,.L L L '.).!.!.~.{.L L L L ].^.P   ",
"  C D E i j k l m F G 9 9 9 /.L L L (._.:.<.[.}.L L L L |.1.P   ",
"  C D E i j k l m F G 9 9 9 2.3.L L L 4.5.6.7.L L L L L 8.9.P   ",
"  C D E i j k l m F G 9 9 9 0.a.L L L L L L L L L L L L b.4 P   ",
"  C D E i j k l m F G 9 9 9 c.d.L L L L L L L L L L L e.f.4 P   ",
"  C D E i j k l m F G 9 9 9 9 g.h.L L L L L L L L L T i.j.4 P   ",
"  C D E i j k l m F G 9 9 9 9 Q k.l.L L L L L L L m.n.o.9 4 P   ",
"  C D E i j k l m F G 9 9 9 9 9 p.q.r.s.L L L L t.u.v.9 9 4 P   ",
"  ; w.h i j k l m x.{ 9 9 9 9 9 9 s y.I z.A.B.I C.D.9 9 9 B E.  ",
"  F.G.H.I.J.K.L.M.N.O.9 9 9 9 9 9 9 9 9 Q c.A P.9 9 9 9 9 Q.C   ",
"    D J.R.S.T.U.V.W.X.X.X.X.X.X.X.X.X.X.X.X.X.X.X.X.X.X.Y.:     ",
"      Z.; ; ; ; ; ; ; ; ; ; ; ; ; ; ; ; ; ; ; ; ; ; ; ; `.      ",
"                                                                ",
"                                                                ",
"                                                                ",
"                                                                ",
"                                                                "};
