/* XPM */
static const char * tv_xpm[] = {
"16 16 106 2",
"  	c None",
". 	c #4A4A4A",
"+ 	c #484848",
"@ 	c #8B8B8B",
"# 	c #999A9D",
"$ 	c #7B8190",
"% 	c #828794",
"& 	c #858A96",
"* 	c #898C98",
"= 	c #8C8F9A",
"- 	c #888C98",
"; 	c #858996",
"> 	c #7D8392",
", 	c #97989C",
"' 	c #898989",
") 	c #7E7E7E",
"! 	c #6A707E",
"~ 	c #3A5295",
"{ 	c #5065A1",
"] 	c #6274AB",
"^ 	c #7281B4",
"/ 	c #7F8CBB",
"( 	c #7E8BBA",
"_ 	c #7080B3",
": 	c #6072AA",
"< 	c #4A609E",
"[ 	c #676E7E",
"} 	c #6F6F6F",
"| 	c #656B79",
"1 	c #375094",
"2 	c #485E9D",
"3 	c #586BA5",
"4 	c #6476AC",
"5 	c #6C7CB1",
"6 	c #6B7BB0",
"7 	c #6374AB",
"8 	c #5669A4",
"9 	c #465C9C",
"0 	c #646A7A",
"a 	c #6E6E6E",
"b 	c #636363",
"c 	c #5E6472",
"d 	c #1D3B86",
"e 	c #3B5496",
"f 	c #495F9E",
"g 	c #5367A3",
"h 	c #596CA6",
"i 	c #586BA6",
"j 	c #5166A2",
"k 	c #475D9C",
"l 	c #25418A",
"m 	c #5A6173",
"n 	c #5F5F5F",
"o 	c #555555",
"p 	c #585E6D",
"q 	c #102F7E",
"r 	c #1E3B86",
"s 	c #344E92",
"t 	c #415899",
"u 	c #425A9A",
"v 	c #354E93",
"w 	c #1B3884",
"x 	c #0E2E7D",
"y 	c #555C6E",
"z 	c #525252",
"A 	c #474747",
"B 	c #545A68",
"C 	c #1F3C87",
"D 	c #2F4A90",
"E 	c #435A9A",
"F 	c #445B9B",
"G 	c #3F5798",
"H 	c #26428B",
"I 	c #153481",
"J 	c #515869",
"K 	c #464646",
"L 	c #3A3A3A",
"M 	c #525765",
"N 	c #334C91",
"O 	c #455C9C",
"P 	c #5468A4",
"Q 	c #5D70A9",
"R 	c #5F71AA",
"S 	c #586CA6",
"T 	c #4C619F",
"U 	c #3A5396",
"V 	c #4E5566",
"W 	c #343434",
"X 	c #555A67",
"Y 	c #7785B7",
"Z 	c #7987B8",
"` 	c #7180B3",
" .	c #525868",
"..	c #404040",
"+.	c #4C4D4F",
"@.	c #4D4E4F",
"#.	c #4E4E50",
"$.	c #4E4F50",
"%.	c #4D4D4F",
"&.	c #4D5150",
"*.	c #434643",
"=.	c #333333",
"-.	c #3C3C3C",
";.	c #363636",
">.	c #365E36",
",.	c #336033",
"                                ",
"                                ",
"                                ",
"                                ",
"                    . +         ",
"  @ # $ % & * = = - ; > , '     ",
"  ) ! ~ { ] ^ / ( _ : < [ )     ",
"  } | 1 2 3 4 5 6 7 8 9 0 a     ",
"  b c d e f g h i j k l m n     ",
"  o p q r s t 9 u v w x y z     ",
"  A B C D e E F G v H I J K     ",
"  L M N O P Q R S T U H V L     ",
"  W X E S 6 Y Z ` : T v  .W     ",
"  W ..+.@.#.#.$.#.@.%.&.*.W     ",
"  W W W =.-.......;.W >.,.W     ",
"                                "};
